<?xml version="1.0" encoding="utf-8"?>
<!-- Generator: Adobe Illustrator 15.1.0, SVG Export Plug-In . SVG Version: 6.00 Build 0)  -->
<!DOCTYPE svg PUBLIC "-//W3C//DTD SVG 1.0//EN" "http://www.w3.org/TR/2001/REC-SVG-20010904/DTD/svg10.dtd">
<svg version="1.0" id="Layer_1" xmlns="http://www.w3.org/2000/svg" xmlns:xlink="http://www.w3.org/1999/xlink" x="0px" y="0px"
	 width="182.589px" height="182.506px" viewBox="0 0 182.589 182.506" enable-background="new 0 0 182.589 182.506"
	 xml:space="preserve">
<g>
	<path fill="#FFFFFF" d="M161.039,0.914H21.654c-4.687,0-9,1.585-12.471,4.223h164.327C170.04,2.5,165.727,0.914,161.039,0.914z"/>
	<path fill="#FEFEFE" d="M173.511,5.137H9.184C7.602,6.339,6.201,7.76,5.022,9.359h172.65C176.492,7.76,175.093,6.339,173.511,5.137
		z"/>
	<path fill="#FDFDFE" d="M177.672,9.359H5.022c-0.961,1.304-1.788,2.711-2.425,4.223h177.5
		C179.46,12.071,178.633,10.664,177.672,9.359z"/>
	<path fill="#FDFDFD" d="M180.097,13.582H2.597c-0.565,1.342-0.979,2.759-1.25,4.227h179.998
		C181.074,16.341,180.661,14.924,180.097,13.582z"/>
	<path fill="#FCFCFC" d="M181.705,21.564c0-1.284-0.134-2.536-0.359-3.756H1.348c-0.226,1.22-0.359,2.472-0.359,3.756v0.467h180.717
		V21.564z"/>
	<rect x="0.988" y="22.031" fill="#FBFBFB" width="180.717" height="4.223"/>
	<rect x="0.988" y="26.254" fill="#FAFAFA" width="180.717" height="4.223"/>
	<rect x="0.988" y="30.477" fill="#F9F9FA" width="180.717" height="4.223"/>
	<rect x="0.988" y="34.699" fill="#F8F8F9" width="180.717" height="4.223"/>
	<rect x="0.988" y="38.922" fill="#F8F7F8" width="180.717" height="4.227"/>
	<rect x="0.988" y="43.148" fill="#F7F7F7" width="180.717" height="4.223"/>
	<rect x="0.988" y="47.371" fill="#F6F6F6" width="180.717" height="4.223"/>
	<rect x="0.988" y="51.594" fill="#F5F5F5" width="180.717" height="4.223"/>
	<rect x="0.988" y="55.816" fill="#F4F4F4" width="180.717" height="4.223"/>
	<rect x="0.988" y="60.039" fill="#F3F3F4" width="180.717" height="4.223"/>
	<rect x="0.988" y="64.262" fill="#F2F2F3" width="180.717" height="4.227"/>
	<rect x="0.988" y="68.488" fill="#F2F1F2" width="180.717" height="4.223"/>
	<rect x="0.988" y="72.711" fill="#F1F0F1" width="180.717" height="4.223"/>
	<rect x="0.988" y="76.934" fill="#F0F0F0" width="180.717" height="4.223"/>
	<rect x="0.988" y="81.156" fill="#EFEFEF" width="180.717" height="4.223"/>
	<rect x="0.988" y="85.379" fill="#EEEEEE" width="180.717" height="4.227"/>
	<rect x="0.988" y="89.605" fill="#EDEDED" width="180.717" height="4.223"/>
	<rect x="0.988" y="93.828" fill="#ECECED" width="180.717" height="4.223"/>
	<rect x="0.988" y="98.051" fill="#EBEBEC" width="180.717" height="4.223"/>
	<rect x="0.988" y="102.273" fill="#EAEAEB" width="180.717" height="4.223"/>
	<rect x="0.988" y="106.496" fill="#EAE9EA" width="180.717" height="4.223"/>
	<rect x="0.988" y="110.719" fill="#E9E9E9" width="180.717" height="4.223"/>
	<rect x="0.988" y="114.941" fill="#E8E8E8" width="180.717" height="4.227"/>
	<rect x="0.988" y="119.168" fill="#E7E7E7" width="180.717" height="4.223"/>
	<rect x="0.988" y="123.391" fill="#E6E6E6" width="180.717" height="4.223"/>
	<rect x="0.988" y="127.613" fill="#E5E5E5" width="180.717" height="4.223"/>
	<rect x="0.988" y="131.836" fill="#E5E4E5" width="180.717" height="4.223"/>
	<rect x="0.988" y="136.059" fill="#E4E3E4" width="180.717" height="4.227"/>
	<rect x="0.988" y="140.285" fill="#E3E3E3" width="180.717" height="4.223"/>
	<rect x="0.988" y="144.508" fill="#E2E2E2" width="180.717" height="4.223"/>
	<rect x="0.988" y="148.73" fill="#E1E1E1" width="180.717" height="4.223"/>
	<rect x="0.988" y="152.953" fill="#E0E0E0" width="180.717" height="4.223"/>
	<path fill="#DFDFDF" d="M181.68,161.402c0.004-0.17,0.025-0.334,0.025-0.505v-3.722H0.988v3.722c0,0.171,0.021,0.335,0.025,0.505
		H181.68z"/>
	<path fill="#DEDEDE" d="M1.555,165.621h179.583c0.32-1.36,0.506-2.77,0.541-4.219H1.014C1.049,162.852,1.235,164.261,1.555,165.621
		z"/>
	<path fill="#DEDEDE" d="M3.059,169.848h176.576c0.647-1.337,1.156-2.749,1.504-4.227H1.555
		C1.903,167.099,2.412,168.511,3.059,169.848z"/>
	<path fill="#DDDDDD" d="M5.753,174.07H176.94c1.066-1.283,1.961-2.707,2.694-4.223H3.059C3.792,171.363,4.687,172.787,5.753,174.07
		z"/>
	<path fill="#DCDCDC" d="M10.561,178.293h161.572c1.812-1.157,3.439-2.575,4.808-4.223H5.753
		C7.122,175.718,8.75,177.136,10.561,178.293z"/>
	<path fill="#DBDBDB" d="M21.654,181.549h139.385c4.084,0,7.885-1.205,11.094-3.256H10.561
		C13.77,180.344,17.57,181.549,21.654,181.549z"/>
</g>
<g>
	<path fill="#CC1236" d="M160.987,182.506H21.602C9.691,182.506,0,172.822,0,160.919V21.586C0,9.683,9.691,0,21.602,0h139.385
		c11.911,0,21.602,9.683,21.602,21.586v139.333C182.589,172.822,172.898,182.506,160.987,182.506z M21.602,0.935
		c-11.396,0-20.666,9.264-20.666,20.651v139.333c0,11.389,9.271,20.651,20.666,20.651h139.385c11.396,0,20.665-9.263,20.665-20.651
		V21.586c0-11.387-9.27-20.651-20.665-20.651H21.602z"/>
</g>
<g id="IIT_1_">
	<polygon fill="#DD052B" points="105.868,66.522 108.767,67.948 109.22,64.584 106.077,63.298 	"/>
	<path fill="#DD052B" d="M74.773,49.564c-0.31-0.002-0.35,0.158-0.017,0.262c0.878,0.272,28.359,9.117,28.359,9.117V55.94
		c0,0-26.319-5.955-26.997-6.125C75.832,49.745,74.996,49.564,74.773,49.564z"/>
	<polygon fill="#DD052B" points="110.165,57.568 106.501,56.721 106.294,59.956 109.698,61.042 	"/>
	<polygon fill="#DD052B" points="111.243,49.581 106.964,49.584 106.728,53.2 110.688,53.698 	"/>
	<polygon fill="#DD052B" points="118.161,59.414 114.142,58.485 113.337,62.204 116.962,63.36 	"/>
	<path fill="#DD052B" d="M103.114,49.587c0,0-22.788,0.002-23.222,0.002c-0.168,0-0.291-0.005-0.316,0.047
		c-0.049,0.099,0.01,0.164,0.279,0.201c0.76,0.106,23.259,2.91,23.259,2.91V49.587z"/>
	<polygon fill="#DD052B" points="111.772,69.429 114.683,70.862 115.776,67.264 112.53,65.935 	"/>
	<polygon fill="#DD052B" points="121.151,49.575 116.067,49.577 115.06,54.247 119.56,54.812 	"/>
	<polygon fill="#DD052B" points="119.394,68.743 117.849,72.421 121.112,74.029 123.247,70.318 	"/>
	<path fill="#DD052B" d="M72.01,49.592c-0.213,0.146,0.215,0.281,0.564,0.459c0.209,0.118,30.544,15.115,30.544,15.115v-3.077
		c0,0-29.675-12.059-30.007-12.19C72.623,49.706,72.186,49.472,72.01,49.592z"/>
	<polygon fill="#DD052B" points="127.427,49.568 124.946,55.488 131.331,56.29 135.202,49.562 	"/>
	<path fill="#DD052B" d="M103.116,105.268c-0.014-0.297,0.004-37.158,0.004-37.158S70.854,49.826,70.639,49.702
		c-0.461-0.268-0.273,0.127-0.104,0.42c3.006,5.202,32.136,55.171,32.239,55.332C103.022,105.826,103.128,105.713,103.116,105.268z"
		/>
	<polygon fill="#DD052B" points="122.847,60.493 121.095,64.679 125.659,66.135 128.196,61.728 	"/>
	<path fill="#DD052B" d="M108.34,71.115l-2.668-1.538c0,0-1.985,33.739-1.983,34.042c-0.041,0.439-0.051,0.756,0.172,0.756
		c0.168,0,0.203-0.783,0.248-1.119C104.172,102.814,108.34,71.115,108.34,71.115z"/>
	<path fill="#DD052B" d="M116.44,75.783c0,0-8.773,20.762-9.072,21.542c-0.104,0.262-0.08,0.332,0.021,0.377
		c0.082,0.037,0.143-0.07,0.246-0.246c0.809-1.413,11.553-20.088,11.553-20.088L116.44,75.783z"/>
	<path fill="#DD052B" d="M113.671,74.188l-2.602-1.5c0,0-6.1,28.611-6.232,29.062c0,0-0.016,0.117-0.004,0.211
		c0.027,0.119,0.074,0.234,0.227,0.041c0.145-0.191,0.227-0.684,0.443-1.363C105.573,100.395,113.671,74.188,113.671,74.188z"/>
</g>
<g id="Cart_1_">
	<path fill="#DD052B" stroke="#FFFFFF" stroke-width="0.4072" d="M102.974,105.117"/>
	<circle fill="#DD052B" cx="87.049" cy="134.844" r="8.068"/>
	<circle fill="#DD052B" cx="120.246" cy="134.844" r="8.067"/>
	<polygon fill="#DD052B" points="138.685,110.104 136.228,119.246 70.729,119.246 54.334,59.312 40.193,59.372 37.674,50.168 
		61.314,50.168 77.709,110.104 	"/>
	<polygon fill="#DD052B" points="60.422,119.246 40.484,119.246 37.982,110.104 58.006,110.104 	"/>
	<polygon fill="#DD052B" points="31.342,85.819 51.281,85.819 48.779,76.677 28.873,76.677 	"/>
	<polygon fill="#DD052B" points="26.308,93.39 53.348,93.39 55.854,102.533 28.75,102.533 	"/>
	<polygon fill="#DD052B" points="131.21,102.533 133.712,93.39 143.256,93.39 140.753,102.533 	"/>
	<polygon fill="#DD052B" points="135.856,85.819 138.358,76.677 147.827,76.677 145.325,85.819 	"/>
	<polygon fill="#DD052B" points="140.409,69.106 142.909,59.962 152.399,59.962 149.899,69.106 	"/>
</g>
</svg>
