<?xml version="1.0" encoding="utf-8"?>
<!-- Generator: Adobe Illustrator 15.1.0, SVG Export Plug-In . SVG Version: 6.00 Build 0)  -->
<!DOCTYPE svg PUBLIC "-//W3C//DTD SVG 1.0//EN" "http://www.w3.org/TR/2001/REC-SVG-20010904/DTD/svg10.dtd">
<svg version="1.0" id="Layer_1" xmlns="http://www.w3.org/2000/svg" xmlns:xlink="http://www.w3.org/1999/xlink" x="0px" y="0px"
	 width="24px" height="24px" viewBox="0 0 24 24" enable-background="new 0 0 24 24" xml:space="preserve">
<polygon fill="#FFFFFF" points="13.355,9.079 13.697,9.218 13.648,9.583 13.332,9.429 "/>
<path fill="#FFFFFF" d="M10.104,7.614c0.073,0.02,2.931,0.666,2.931,0.666v0.324c0,0-2.983-0.959-3.079-0.988
	c-0.036-0.012-0.031-0.03,0.002-0.03C9.982,7.586,10.073,7.606,10.104,7.614z"/>
<polygon fill="#FFFFFF" points="13.748,8.833 13.379,8.716 13.402,8.364 13.798,8.456 "/>
<polygon fill="#FFFFFF" points="13.855,8.036 13.425,7.981 13.45,7.588 13.915,7.588 "/>
<polygon fill="#FFFFFF" points="14.537,9.084 14.143,8.959 14.23,8.555 14.666,8.657 "/>
<path fill="#FFFFFF" d="M13.033,7.932c0,0-2.441-0.305-2.523-0.314c-0.029-0.004-0.036-0.012-0.03-0.023
	c0.003-0.006,0.016-0.004,0.034-0.004c0.047,0,2.52,0,2.52,0L13.033,7.932L13.033,7.932z"/>
<polygon fill="#FFFFFF" points="14.057,9.364 14.409,9.509 14.29,9.9 13.977,9.744 "/>
<polygon fill="#FFFFFF" points="14.818,8.157 14.33,8.094 14.439,7.588 14.992,7.588 "/>
<polygon fill="#FFFFFF" points="15.219,9.84 14.986,10.242 14.633,10.066 14.801,9.668 "/>
<path fill="#FFFFFF" d="M9.778,7.624c0.036,0.014,3.257,1.322,3.257,1.322V9.28c0,0-3.293-1.627-3.315-1.641
	C9.682,7.62,9.635,7.606,9.658,7.59C9.678,7.577,9.725,7.602,9.778,7.624z"/>
<polygon fill="#FFFFFF" points="16.518,7.586 16.096,8.316 15.402,8.228 15.673,7.587 "/>
<path fill="#FFFFFF" d="M12.998,13.652c-0.012-0.019-3.173-5.441-3.5-6.005C9.48,7.616,9.46,7.573,9.51,7.602
	C9.533,7.616,13.035,9.6,13.035,9.6s-0.002,4,0,4.031C13.035,13.68,13.023,13.693,12.998,13.652z"/>
<polygon fill="#FFFFFF" points="15.756,8.907 15.48,9.385 14.984,9.227 15.175,8.774 "/>
<path fill="#FFFFFF" d="M13.143,13.414c-0.006,0.035-0.01,0.121-0.026,0.121c-0.023,0-0.023-0.035-0.021-0.082
	c0-0.033,0.217-3.695,0.217-3.695l0.289,0.168C13.602,9.926,13.148,13.365,13.143,13.414z"/>
<path fill="#FFFFFF" d="M14.779,10.604c0,0-1.166,2.027-1.254,2.179c-0.012,0.02-0.019,0.031-0.027,0.027
	c-0.012-0.004-0.014-0.013-0.002-0.041c0.031-0.084,0.984-2.337,0.984-2.337L14.779,10.604z"/>
<path fill="#FFFFFF" d="M13.293,13.129c-0.023,0.074-0.031,0.127-0.047,0.148c-0.018,0.021-0.021,0.008-0.025-0.004
	c-0.002-0.01,0-0.023,0-0.023c0.016-0.049,0.678-3.154,0.678-3.154l0.281,0.164C14.18,10.26,13.301,13.104,13.293,13.129z"/>
<circle fill="#FFFFFF" cx="11.291" cy="16.842" r="0.875"/>
<circle fill="#FFFFFF" cx="14.894" cy="16.842" r="0.876"/>
<polygon fill="#FFFFFF" points="16.895,14.156 16.627,15.148 9.52,15.148 7.74,8.645 6.206,8.651 5.933,7.653 8.498,7.653 
	10.277,14.156 "/>
<polygon fill="#FFFFFF" points="8.401,15.148 6.237,15.148 5.966,14.156 8.139,14.156 "/>
<polygon fill="#FFFFFF" points="4.977,10.53 7.138,10.53 7.409,11.522 5.245,11.522 "/>
<polygon fill="#FFFFFF" points="4.699,12.344 7.634,12.344 7.905,13.336 4.964,13.336 "/>
<polygon fill="#FFFFFF" points="16.084,13.336 16.355,12.344 17.391,12.344 17.119,13.336 "/>
<polygon fill="#FFFFFF" points="16.588,11.522 16.859,10.53 17.887,10.53 17.615,11.522 "/>
<polygon fill="#FFFFFF" points="17.082,9.708 17.354,8.716 18.382,8.716 18.111,9.708 "/>
</svg>
